<svg width="43" height="43" viewBox="0 0 43 43" fill="none" xmlns="http://www.w3.org/2000/svg">
<g id="&#240;&#159;&#166;&#134; icon &#34;instagram&#34;">
<g id="Group">
<path id="Vector" d="M15.65 41H27.35C37.1 41 41 37.1 41 27.35V15.65C41 5.9 37.1 2 27.35 2H15.65C5.9 2 2 5.9 2 15.65V27.35C2 37.1 5.9 41 15.65 41Z" fill="white" stroke="#555555" stroke-width="4" stroke-linecap="round" stroke-linejoin="round"/>
<path id="Vector_2" d="M21.4999 28.3253C25.2693 28.3253 28.3249 25.2696 28.3249 21.5003C28.3249 17.7309 25.2693 14.6753 21.4999 14.6753C17.7306 14.6753 14.6749 17.7309 14.6749 21.5003C14.6749 25.2696 17.7306 28.3253 21.4999 28.3253Z" fill="white" stroke="#555555" stroke-width="4" stroke-linecap="round" stroke-linejoin="round"/>
<g id="Vector_3">
<path d="M32.4904 11.75H32.5125H32.4904Z" fill="white"/>
<path d="M32.4904 11.75H32.5125" stroke="#555555" stroke-width="4" stroke-linecap="round" stroke-linejoin="round"/>
</g>
</g>
</g>
</svg>
