<svg width="39" height="39" viewBox="0 0 39 39" fill="none" xmlns="http://www.w3.org/2000/svg">
<g id="&#240;&#159;&#166;&#134; icon &#34;facebook&#34;">
<path id="Vector" d="M39 27.6705C39 34.7685 34.7685 39 27.6705 39H25.35C24.2775 39 23.4 38.1225 23.4 37.05V25.7985C23.4 25.272 23.829 24.8235 24.3555 24.8235L27.7875 24.765C28.0605 24.7455 28.2945 24.5505 28.353 24.2775L29.0355 20.553C29.094 20.202 28.821 19.8705 28.4505 19.8705L24.297 19.929C23.751 19.929 23.322 19.5 23.3025 18.9735L23.2245 14.196C23.2245 13.884 23.478 13.611 23.8095 13.611L28.4895 13.533C28.821 13.533 29.0745 13.2795 29.0745 12.948L28.9965 8.26798C28.9965 7.93648 28.743 7.683 28.4115 7.683L23.1465 7.76102C19.9095 7.81952 17.3355 10.4715 17.394 13.7085L17.4915 19.071C17.511 19.617 17.082 20.046 16.536 20.0655L14.196 20.1045C13.8645 20.1045 13.611 20.358 13.611 20.6895L13.6695 24.3945C13.6695 24.726 13.923 24.9795 14.2545 24.9795L16.5945 24.9405C17.1405 24.9405 17.5695 25.3695 17.589 25.896L17.7645 37.011C17.784 38.103 16.9065 39 15.8145 39H11.3295C4.2315 39 0 34.7685 0 27.651V11.3295C0 4.2315 4.2315 0 11.3295 0H27.6705C34.7685 0 39 4.2315 39 11.3295V27.6705Z" fill="#555555"/>
</g>
</svg>
