<svg width="39" height="39" viewBox="0 0 39 39" fill="none" xmlns="http://www.w3.org/2000/svg">
<g id="&#240;&#159;&#166;&#134; icon &#34;whatsapp&#34;">
<path id="Vector" d="M38.9679 18.3479C38.305 7.03944 28.0299 -1.6759 16.1949 0.273842C8.04495 1.61917 1.5133 8.22876 0.245965 16.3786C-0.494938 21.097 0.479973 25.5619 2.6052 29.247L0.869903 35.7006C0.479954 37.1629 1.82524 38.4887 3.26805 38.0793L9.62424 36.3245C12.5099 38.0208 15.8829 38.9957 19.49 38.9957C30.4865 38.9957 39.6113 29.3055 38.9679 18.3479ZM29.0242 26.7513C28.8487 27.1022 28.6343 27.4337 28.3613 27.7457C27.8739 28.2721 27.3474 28.662 26.7625 28.896C26.1776 29.1495 25.5342 29.2665 24.8518 29.2665C23.8574 29.2665 22.785 29.0327 21.6737 28.5452C20.5428 28.0578 19.4315 27.4142 18.3201 26.6148C17.1893 25.7959 16.1364 24.8795 15.1225 23.8852C14.1087 22.8713 13.2117 21.7989 12.3928 20.6876C11.5934 19.5762 10.9501 18.4649 10.4821 17.3535C10.0142 16.2422 9.78026 15.1699 9.78026 14.156C9.78026 13.4931 9.89722 12.8497 10.1312 12.2648C10.3652 11.6603 10.7357 11.1144 11.2621 10.627C11.886 10.0031 12.5684 9.71061 13.2898 9.71061C13.5627 9.71061 13.8357 9.76908 14.0891 9.88607C14.3426 10.003 14.5766 10.1785 14.7521 10.432L17.0138 13.6296C17.1893 13.883 17.3258 14.0975 17.4037 14.312C17.5012 14.5264 17.5402 14.7214 17.5402 14.9164C17.5402 15.1504 17.4622 15.3844 17.3258 15.6182C17.1893 15.8522 17.0138 16.0862 16.7798 16.3201L16.0389 17.1C15.9219 17.217 15.8829 17.334 15.8829 17.49C15.8829 17.568 15.9024 17.646 15.9219 17.724C15.9609 17.802 15.9804 17.8604 15.9999 17.9189C16.1754 18.2504 16.4874 18.6598 16.9163 19.1668C17.3647 19.6737 17.8327 20.2001 18.3396 20.7071C18.8661 21.2335 19.373 21.7014 19.8994 22.1499C20.4064 22.5788 20.8353 22.8713 21.1668 23.0468C21.2252 23.0663 21.2837 23.1053 21.3422 23.1248C21.4202 23.1638 21.4982 23.1638 21.5957 23.1638C21.7712 23.1638 21.8882 23.1053 22.0051 22.9883L22.746 22.2474C22.9995 21.9939 23.2335 21.8184 23.448 21.7014C23.6819 21.565 23.8964 21.487 24.1499 21.487C24.3448 21.487 24.5398 21.526 24.7543 21.6235C24.9688 21.7209 25.2027 21.8379 25.4367 22.0134L28.6733 24.3141C28.9267 24.4896 29.1022 24.7041 29.2192 24.938C29.3167 25.1915 29.3752 25.4255 29.3752 25.6984C29.2582 26.0299 29.1802 26.4003 29.0242 26.7513Z" fill="#555555"/>
</g>
</svg>
